<?xml version="1.0" encoding="UTF-8" standalone="no"?>
<!DOCTYPE svg PUBLIC "-//W3C//DTD SVG 1.1//EN"
 "http://www.w3.org/Graphics/SVG/1.1/DTD/svg11.dtd">
<!-- Generated by graphviz version 6.0.2 (20221011.1828)
 -->
<!-- Pages: 1 -->
<svg width="301pt" height="320pt"
 viewBox="0.00 0.00 301.00 320.00" xmlns="http://www.w3.org/2000/svg" xmlns:xlink="http://www.w3.org/1999/xlink">
<g id="graph0" class="graph" transform="scale(1 1) rotate(0) translate(4 316)">
<polygon fill="white" stroke="none" points="-4,4 -4,-316 297,-316 297,4 -4,4"/>
<!-- 0 -->
<g id="node1" class="node">
<title>0</title>
<ellipse fill="none" stroke="black" cx="50" cy="-18" rx="27" ry="18"/>
<text text-anchor="middle" x="50" y="-14.3" font-family="Times New Roman,serif" font-size="14.00">0</text>
<text text-anchor="middle" x="11.5" y="-39.8" font-family="Times New Roman,serif" font-size="14.00">df 0</text>
</g>
<!-- 1 -->
<g id="node2" class="node">
<title>1</title>
<ellipse fill="none" stroke="black" cx="50" cy="-105" rx="27" ry="18"/>
<text text-anchor="middle" x="50" y="-101.3" font-family="Times New Roman,serif" font-size="14.00">1</text>
<text text-anchor="middle" x="11.5" y="-126.8" font-family="Times New Roman,serif" font-size="14.00">df 1</text>
</g>
<!-- 1&#45;&gt;0 -->
<g id="edge1" class="edge">
<title>1&#45;&gt;0</title>
<path fill="none" stroke="black" d="M50,-86.8C50,-75.16 50,-59.55 50,-46.24"/>
<polygon fill="black" stroke="black" points="53.5,-46.18 50,-36.18 46.5,-46.18 53.5,-46.18"/>
<text text-anchor="middle" x="52" y="-57.8" font-family="Times New Roman,serif" font-size="14.00">l</text>
</g>
<!-- 2 -->
<g id="node3" class="node">
<title>2</title>
<ellipse fill="none" stroke="black" cx="122" cy="-192" rx="27" ry="18"/>
<text text-anchor="middle" x="122" y="-188.3" font-family="Times New Roman,serif" font-size="14.00">2</text>
<text text-anchor="middle" x="83.5" y="-213.8" font-family="Times New Roman,serif" font-size="14.00">df 1</text>
</g>
<!-- 2&#45;&gt;1 -->
<g id="edge2" class="edge">
<title>2&#45;&gt;1</title>
<path fill="none" stroke="black" d="M109.13,-175.8C98.07,-162.75 81.96,-143.74 69.35,-128.85"/>
<polygon fill="black" stroke="black" points="71.89,-126.43 62.76,-121.06 66.55,-130.96 71.89,-126.43"/>
<text text-anchor="middle" x="93" y="-144.8" font-family="Times New Roman,serif" font-size="14.00">l</text>
</g>
<!-- 3 -->
<g id="node4" class="node">
<title>3</title>
<ellipse fill="none" stroke="black" cx="122" cy="-105" rx="27" ry="18"/>
<text text-anchor="middle" x="122" y="-101.3" font-family="Times New Roman,serif" font-size="14.00">3</text>
<text text-anchor="middle" x="83.5" y="-126.8" font-family="Times New Roman,serif" font-size="14.00">df 0</text>
</g>
<!-- 2&#45;&gt;3 -->
<g id="edge3" class="edge">
<title>2&#45;&gt;3</title>
<path fill="none" stroke="black" d="M122,-173.8C122,-162.16 122,-146.55 122,-133.24"/>
<polygon fill="black" stroke="black" points="125.5,-133.18 122,-123.18 118.5,-133.18 125.5,-133.18"/>
<text text-anchor="middle" x="124.5" y="-144.8" font-family="Times New Roman,serif" font-size="14.00">r</text>
</g>
<!-- 5 -->
<g id="node5" class="node">
<title>5</title>
<ellipse fill="none" stroke="black" cx="157" cy="-279" rx="27" ry="18"/>
<text text-anchor="middle" x="157" y="-275.3" font-family="Times New Roman,serif" font-size="14.00">5</text>
<text text-anchor="middle" x="118.5" y="-300.8" font-family="Times New Roman,serif" font-size="14.00">df 1</text>
</g>
<!-- 5&#45;&gt;2 -->
<g id="edge4" class="edge">
<title>5&#45;&gt;2</title>
<path fill="none" stroke="black" d="M150.09,-261.21C145.12,-249.14 138.32,-232.64 132.66,-218.89"/>
<polygon fill="black" stroke="black" points="135.83,-217.38 128.78,-209.47 129.35,-220.05 135.83,-217.38"/>
<text text-anchor="middle" x="144" y="-231.8" font-family="Times New Roman,serif" font-size="14.00">l</text>
</g>
<!-- 7 -->
<g id="node6" class="node">
<title>7</title>
<ellipse fill="none" stroke="black" cx="194" cy="-192" rx="27" ry="18"/>
<text text-anchor="middle" x="194" y="-188.3" font-family="Times New Roman,serif" font-size="14.00">7</text>
<text text-anchor="middle" x="155.5" y="-213.8" font-family="Times New Roman,serif" font-size="14.00">df 0</text>
</g>
<!-- 5&#45;&gt;7 -->
<g id="edge5" class="edge">
<title>5&#45;&gt;7</title>
<path fill="none" stroke="black" d="M164.13,-261.61C169.37,-249.58 176.6,-232.98 182.63,-219.13"/>
<polygon fill="black" stroke="black" points="185.98,-220.19 186.76,-209.63 179.56,-217.4 185.98,-220.19"/>
<text text-anchor="middle" x="180.5" y="-231.8" font-family="Times New Roman,serif" font-size="14.00">r</text>
</g>
<!-- 6 -->
<g id="node7" class="node">
<title>6</title>
<ellipse fill="none" stroke="black" cx="194" cy="-105" rx="27" ry="18"/>
<text text-anchor="middle" x="194" y="-101.3" font-family="Times New Roman,serif" font-size="14.00">6</text>
<text text-anchor="middle" x="155.5" y="-126.8" font-family="Times New Roman,serif" font-size="14.00">df 0</text>
</g>
<!-- 7&#45;&gt;6 -->
<g id="edge6" class="edge">
<title>7&#45;&gt;6</title>
<path fill="none" stroke="black" d="M194,-173.8C194,-162.16 194,-146.55 194,-133.24"/>
<polygon fill="black" stroke="black" points="197.5,-133.18 194,-123.18 190.5,-133.18 197.5,-133.18"/>
<text text-anchor="middle" x="196" y="-144.8" font-family="Times New Roman,serif" font-size="14.00">l</text>
</g>
<!-- 8 -->
<g id="node8" class="node">
<title>8</title>
<ellipse fill="none" stroke="black" cx="266" cy="-105" rx="27" ry="18"/>
<text text-anchor="middle" x="266" y="-101.3" font-family="Times New Roman,serif" font-size="14.00">8</text>
<text text-anchor="middle" x="227.5" y="-126.8" font-family="Times New Roman,serif" font-size="14.00">df 0</text>
</g>
<!-- 7&#45;&gt;8 -->
<g id="edge7" class="edge">
<title>7&#45;&gt;8</title>
<path fill="none" stroke="black" d="M206.87,-175.8C217.93,-162.75 234.04,-143.74 246.65,-128.85"/>
<polygon fill="black" stroke="black" points="249.45,-130.96 253.24,-121.06 244.11,-126.43 249.45,-130.96"/>
<text text-anchor="middle" x="236.5" y="-144.8" font-family="Times New Roman,serif" font-size="14.00">r</text>
</g>
</g>
</svg>
