<?xml version="1.0" encoding="UTF-8" standalone="no"?>
<!DOCTYPE svg PUBLIC "-//W3C//DTD SVG 1.1//EN"
 "http://www.w3.org/Graphics/SVG/1.1/DTD/svg11.dtd">
<!-- Generated by graphviz version 6.0.2 (20221011.1828)
 -->
<!-- Pages: 1 -->
<svg width="2078pt" height="116pt"
 viewBox="0.00 0.00 2078.00 116.00" xmlns="http://www.w3.org/2000/svg" xmlns:xlink="http://www.w3.org/1999/xlink">
<g id="graph0" class="graph" transform="scale(1 1) rotate(0) translate(4 112)">
<polygon fill="white" stroke="none" points="-4,4 -4,-112 2074,-112 2074,4 -4,4"/>
<!-- 0 -->
<g id="node1" class="node">
<title>0</title>
<ellipse fill="none" stroke="black" cx="27" cy="-18" rx="27" ry="18"/>
<text text-anchor="middle" x="27" y="-14.3" font-family="Times New Roman,serif" font-size="14.00">0</text>
</g>
<!-- B0 -->
<g id="node2" class="node">
<title>B0</title>
<ellipse fill="none" stroke="black" cx="1035" cy="-90" rx="27" ry="18"/>
<text text-anchor="middle" x="1035" y="-86.3" font-family="Times New Roman,serif" font-size="14.00">r</text>
</g>
<!-- B0&#45;&gt;0 -->
<g id="edge1" class="edge">
<title>B0&#45;&gt;0</title>
<path fill="none" stroke="black" d="M1008.02,-88.93C870.75,-88.34 249.16,-83.1 63,-36 60.82,-35.45 58.62,-34.76 56.43,-33.99"/>
<polygon fill="black" stroke="black" points="57.63,-30.7 47.05,-30.13 54.97,-37.17 57.63,-30.7"/>
</g>
<!-- 1 -->
<g id="node3" class="node">
<title>1</title>
<ellipse fill="none" stroke="black" cx="99" cy="-18" rx="27" ry="18"/>
<text text-anchor="middle" x="99" y="-14.3" font-family="Times New Roman,serif" font-size="14.00">1</text>
</g>
<!-- B0&#45;&gt;1 -->
<g id="edge3" class="edge">
<title>B0&#45;&gt;1</title>
<path fill="none" stroke="black" d="M1007.88,-88.79C876.59,-87.56 306.37,-79.76 135,-36 132.82,-35.44 130.62,-34.76 128.43,-33.98"/>
<polygon fill="black" stroke="black" points="129.63,-30.69 119.05,-30.12 126.97,-37.16 129.63,-30.69"/>
</g>
<!-- 2 -->
<g id="node4" class="node">
<title>2</title>
<ellipse fill="none" stroke="black" cx="171" cy="-18" rx="27" ry="18"/>
<text text-anchor="middle" x="171" y="-14.3" font-family="Times New Roman,serif" font-size="14.00">2</text>
</g>
<!-- B0&#45;&gt;2 -->
<g id="edge2" class="edge">
<title>B0&#45;&gt;2</title>
<path fill="none" stroke="black" d="M1008,-88.63C883.46,-86.73 363.73,-76.45 207,-36 204.82,-35.44 202.62,-34.75 200.43,-33.96"/>
<polygon fill="black" stroke="black" points="201.64,-30.67 191.06,-30.1 198.97,-37.15 201.64,-30.67"/>
</g>
<!-- 3 -->
<g id="node5" class="node">
<title>3</title>
<ellipse fill="none" stroke="black" cx="243" cy="-18" rx="27" ry="18"/>
<text text-anchor="middle" x="243" y="-14.3" font-family="Times New Roman,serif" font-size="14.00">3</text>
</g>
<!-- B0&#45;&gt;3 -->
<g id="edge7" class="edge">
<title>B0&#45;&gt;3</title>
<path fill="none" stroke="black" d="M1008.02,-88.44C890.3,-85.81 421.1,-73.13 279,-36 276.83,-35.43 274.62,-34.73 272.44,-33.95"/>
<polygon fill="black" stroke="black" points="273.64,-30.66 263.06,-30.07 270.97,-37.13 273.64,-30.66"/>
</g>
<!-- 5 -->
<g id="node6" class="node">
<title>5</title>
<ellipse fill="none" stroke="black" cx="315" cy="-18" rx="27" ry="18"/>
<text text-anchor="middle" x="315" y="-14.3" font-family="Times New Roman,serif" font-size="14.00">5</text>
</g>
<!-- B0&#45;&gt;5 -->
<g id="edge4" class="edge">
<title>B0&#45;&gt;5</title>
<path fill="none" stroke="black" d="M1008.03,-88.21C897.43,-84.79 478.5,-69.82 351,-36 348.83,-35.42 346.63,-34.72 344.44,-33.93"/>
<polygon fill="black" stroke="black" points="345.65,-30.64 335.07,-30.05 342.97,-37.11 345.65,-30.64"/>
</g>
<!-- 4 -->
<g id="node7" class="node">
<title>4</title>
<ellipse fill="none" stroke="black" cx="387" cy="-18" rx="27" ry="18"/>
<text text-anchor="middle" x="387" y="-14.3" font-family="Times New Roman,serif" font-size="14.00">4</text>
</g>
<!-- B0&#45;&gt;4 -->
<g id="edge5" class="edge">
<title>B0&#45;&gt;4</title>
<path fill="none" stroke="black" d="M1008.12,-87.94C905.15,-83.67 536,-66.52 423,-36 421.05,-35.47 419.07,-34.84 417.1,-34.14"/>
<polygon fill="black" stroke="black" points="418.04,-30.75 407.46,-30.19 415.38,-37.22 418.04,-30.75"/>
</g>
<!-- 6 -->
<g id="node8" class="node">
<title>6</title>
<ellipse fill="none" stroke="black" cx="459" cy="-18" rx="27" ry="18"/>
<text text-anchor="middle" x="459" y="-14.3" font-family="Times New Roman,serif" font-size="14.00">6</text>
</g>
<!-- B0&#45;&gt;6 -->
<g id="edge6" class="edge">
<title>B0&#45;&gt;6</title>
<path fill="none" stroke="black" d="M1008,-89.58C928.05,-90.6 686.13,-88.8 495,-36 493.05,-35.46 491.08,-34.82 489.11,-34.12"/>
<polygon fill="black" stroke="black" points="490.05,-30.72 479.47,-30.15 487.38,-37.19 490.05,-30.72"/>
</g>
<!-- 7 -->
<g id="node9" class="node">
<title>7</title>
<ellipse fill="none" stroke="black" cx="531" cy="-18" rx="27" ry="18"/>
<text text-anchor="middle" x="531" y="-14.3" font-family="Times New Roman,serif" font-size="14.00">7</text>
</g>
<!-- B0&#45;&gt;7 -->
<g id="edge15" class="edge">
<title>B0&#45;&gt;7</title>
<path fill="none" stroke="black" d="M1008.02,-89.01C935.32,-88.37 729.81,-82.28 567,-36 565.06,-35.45 563.09,-34.8 561.12,-34.08"/>
<polygon fill="black" stroke="black" points="562.07,-30.69 551.49,-30.09 559.39,-37.15 562.07,-30.69"/>
</g>
<!-- 11 -->
<g id="node10" class="node">
<title>11</title>
<ellipse fill="none" stroke="black" cx="603" cy="-18" rx="27" ry="18"/>
<text text-anchor="middle" x="603" y="-14.3" font-family="Times New Roman,serif" font-size="14.00">11</text>
</g>
<!-- B0&#45;&gt;11 -->
<g id="edge8" class="edge">
<title>B0&#45;&gt;11</title>
<path fill="none" stroke="black" d="M1007.99,-88.23C943.08,-85.79 773.71,-75.78 639,-36 637.06,-35.43 635.1,-34.76 633.13,-34.04"/>
<polygon fill="black" stroke="black" points="634.09,-30.64 623.51,-30.01 631.39,-37.1 634.09,-30.64"/>
</g>
<!-- 8 -->
<g id="node11" class="node">
<title>8</title>
<ellipse fill="none" stroke="black" cx="675" cy="-18" rx="27" ry="18"/>
<text text-anchor="middle" x="675" y="-14.3" font-family="Times New Roman,serif" font-size="14.00">8</text>
</g>
<!-- B0&#45;&gt;8 -->
<g id="edge9" class="edge">
<title>B0&#45;&gt;8</title>
<path fill="none" stroke="black" d="M1007.96,-87.13C951.6,-82.69 817.94,-69.28 711,-36 709.07,-35.4 707.11,-34.71 705.15,-33.97"/>
<polygon fill="black" stroke="black" points="706.12,-30.58 695.54,-29.9 703.39,-37.02 706.12,-30.58"/>
</g>
<!-- 9 -->
<g id="node12" class="node">
<title>9</title>
<ellipse fill="none" stroke="black" cx="747" cy="-18" rx="27" ry="18"/>
<text text-anchor="middle" x="747" y="-14.3" font-family="Times New Roman,serif" font-size="14.00">9</text>
</g>
<!-- B0&#45;&gt;9 -->
<g id="edge11" class="edge">
<title>B0&#45;&gt;9</title>
<path fill="none" stroke="black" d="M1008.71,-85.54C962.28,-78.98 863.09,-62.92 783,-36 781.08,-35.36 779.14,-34.64 777.19,-33.87"/>
<polygon fill="black" stroke="black" points="778.17,-30.48 767.6,-29.74 775.4,-36.91 778.17,-30.48"/>
</g>
<!-- 10 -->
<g id="node13" class="node">
<title>10</title>
<ellipse fill="none" stroke="black" cx="819" cy="-18" rx="27" ry="18"/>
<text text-anchor="middle" x="819" y="-14.3" font-family="Times New Roman,serif" font-size="14.00">10</text>
</g>
<!-- B0&#45;&gt;10 -->
<g id="edge10" class="edge">
<title>B0&#45;&gt;10</title>
<path fill="none" stroke="black" d="M1009.85,-82.91C974.68,-74.1 909.04,-56.57 855,-36 853.16,-35.3 851.28,-34.54 849.4,-33.75"/>
<polygon fill="black" stroke="black" points="850.64,-30.48 840.08,-29.62 847.81,-36.88 850.64,-30.48"/>
</g>
<!-- 13 -->
<g id="node14" class="node">
<title>13</title>
<ellipse fill="none" stroke="black" cx="891" cy="-18" rx="27" ry="18"/>
<text text-anchor="middle" x="891" y="-14.3" font-family="Times New Roman,serif" font-size="14.00">13</text>
</g>
<!-- B0&#45;&gt;13 -->
<g id="edge12" class="edge">
<title>B0&#45;&gt;13</title>
<path fill="none" stroke="black" d="M1013.75,-78.67C989.4,-66.83 949.28,-47.33 921.57,-33.86"/>
<polygon fill="black" stroke="black" points="922.86,-30.6 912.33,-29.37 919.8,-36.89 922.86,-30.6"/>
</g>
<!-- 12 -->
<g id="node15" class="node">
<title>12</title>
<ellipse fill="none" stroke="black" cx="963" cy="-18" rx="27" ry="18"/>
<text text-anchor="middle" x="963" y="-14.3" font-family="Times New Roman,serif" font-size="14.00">12</text>
</g>
<!-- B0&#45;&gt;12 -->
<g id="edge13" class="edge">
<title>B0&#45;&gt;12</title>
<path fill="none" stroke="black" d="M1020.43,-74.83C1010.25,-64.94 996.48,-51.55 984.97,-40.36"/>
<polygon fill="black" stroke="black" points="987.41,-37.85 977.8,-33.38 982.53,-42.87 987.41,-37.85"/>
</g>
<!-- 14 -->
<g id="node16" class="node">
<title>14</title>
<ellipse fill="none" stroke="black" cx="1035" cy="-18" rx="27" ry="18"/>
<text text-anchor="middle" x="1035" y="-14.3" font-family="Times New Roman,serif" font-size="14.00">14</text>
</g>
<!-- B0&#45;&gt;14 -->
<g id="edge14" class="edge">
<title>B0&#45;&gt;14</title>
<path fill="none" stroke="black" d="M1035,-71.7C1035,-63.98 1035,-54.71 1035,-46.11"/>
<polygon fill="black" stroke="black" points="1038.5,-46.1 1035,-36.1 1031.5,-46.1 1038.5,-46.1"/>
</g>
<!-- 23 -->
<g id="node18" class="node">
<title>23</title>
<ellipse fill="none" stroke="black" cx="1107" cy="-18" rx="27" ry="18"/>
<text text-anchor="middle" x="1107" y="-14.3" font-family="Times New Roman,serif" font-size="14.00">23</text>
</g>
<!-- B0&#45;&gt;23 -->
<g id="edge16" class="edge">
<title>B0&#45;&gt;23</title>
<path fill="none" stroke="black" d="M1049.57,-74.83C1059.75,-64.94 1073.52,-51.55 1085.03,-40.36"/>
<polygon fill="black" stroke="black" points="1087.47,-42.87 1092.2,-33.38 1082.59,-37.85 1087.47,-42.87"/>
</g>
<!-- 16 -->
<g id="node19" class="node">
<title>16</title>
<ellipse fill="none" stroke="black" cx="1179" cy="-18" rx="27" ry="18"/>
<text text-anchor="middle" x="1179" y="-14.3" font-family="Times New Roman,serif" font-size="14.00">16</text>
</g>
<!-- B0&#45;&gt;16 -->
<g id="edge17" class="edge">
<title>B0&#45;&gt;16</title>
<path fill="none" stroke="black" d="M1056.25,-78.67C1080.6,-66.83 1120.72,-47.33 1148.43,-33.86"/>
<polygon fill="black" stroke="black" points="1150.2,-36.89 1157.67,-29.37 1147.14,-30.6 1150.2,-36.89"/>
</g>
<!-- 17 -->
<g id="node20" class="node">
<title>17</title>
<ellipse fill="none" stroke="black" cx="1251" cy="-18" rx="27" ry="18"/>
<text text-anchor="middle" x="1251" y="-14.3" font-family="Times New Roman,serif" font-size="14.00">17</text>
</g>
<!-- B0&#45;&gt;17 -->
<g id="edge19" class="edge">
<title>B0&#45;&gt;17</title>
<path fill="none" stroke="black" d="M1056.03,-78.23C1060.87,-75.98 1066.05,-73.77 1071,-72 1133.13,-49.81 1152.87,-58.19 1215,-36 1216.86,-35.34 1218.74,-34.61 1220.63,-33.84"/>
<polygon fill="black" stroke="black" points="1222.2,-36.98 1229.97,-29.77 1219.41,-30.56 1222.2,-36.98"/>
</g>
<!-- 18 -->
<g id="node21" class="node">
<title>18</title>
<ellipse fill="none" stroke="black" cx="1323" cy="-18" rx="27" ry="18"/>
<text text-anchor="middle" x="1323" y="-14.3" font-family="Times New Roman,serif" font-size="14.00">18</text>
</g>
<!-- B0&#45;&gt;18 -->
<g id="edge18" class="edge">
<title>B0&#45;&gt;18</title>
<path fill="none" stroke="black" d="M1055.55,-78.11C1060.5,-75.82 1065.85,-73.61 1071,-72 1163.89,-42.94 1194.11,-65.06 1287,-36 1288.93,-35.4 1290.89,-34.71 1292.84,-33.96"/>
<polygon fill="black" stroke="black" points="1294.61,-37.02 1302.45,-29.89 1291.88,-30.57 1294.61,-37.02"/>
</g>
<!-- 19 -->
<g id="node22" class="node">
<title>19</title>
<ellipse fill="none" stroke="black" cx="1395" cy="-18" rx="27" ry="18"/>
<text text-anchor="middle" x="1395" y="-14.3" font-family="Times New Roman,serif" font-size="14.00">19</text>
</g>
<!-- B0&#45;&gt;19 -->
<g id="edge23" class="edge">
<title>B0&#45;&gt;19</title>
<path fill="none" stroke="black" d="M1055.5,-77.95C1060.46,-75.67 1065.82,-73.5 1071,-72 1194.87,-36.01 1235.13,-71.99 1359,-36 1360.94,-35.44 1362.91,-34.78 1364.87,-34.06"/>
<polygon fill="black" stroke="black" points="1366.61,-37.12 1374.5,-30.05 1363.92,-30.66 1366.61,-37.12"/>
</g>
<!-- 21 -->
<g id="node23" class="node">
<title>21</title>
<ellipse fill="none" stroke="black" cx="1467" cy="-18" rx="27" ry="18"/>
<text text-anchor="middle" x="1467" y="-14.3" font-family="Times New Roman,serif" font-size="14.00">21</text>
</g>
<!-- B0&#45;&gt;21 -->
<g id="edge20" class="edge">
<title>B0&#45;&gt;21</title>
<path fill="none" stroke="black" d="M1055.48,-77.86C1060.43,-75.58 1065.8,-73.44 1071,-72 1225.95,-29.04 1276.05,-78.96 1431,-36 1432.95,-35.46 1434.92,-34.82 1436.89,-34.11"/>
<polygon fill="black" stroke="black" points="1438.62,-37.19 1446.52,-30.14 1435.95,-30.72 1438.62,-37.19"/>
</g>
<!-- 20 -->
<g id="node24" class="node">
<title>20</title>
<ellipse fill="none" stroke="black" cx="1539" cy="-18" rx="27" ry="18"/>
<text text-anchor="middle" x="1539" y="-14.3" font-family="Times New Roman,serif" font-size="14.00">20</text>
</g>
<!-- B0&#45;&gt;20 -->
<g id="edge21" class="edge">
<title>B0&#45;&gt;20</title>
<path fill="none" stroke="black" d="M1055.46,-77.8C1060.42,-75.52 1065.79,-73.4 1071,-72 1257.08,-22.07 1316.92,-85.93 1503,-36 1504.95,-35.48 1506.93,-34.85 1508.9,-34.15"/>
<polygon fill="black" stroke="black" points="1510.62,-37.23 1518.54,-30.2 1507.96,-30.75 1510.62,-37.23"/>
</g>
<!-- 22 -->
<g id="node25" class="node">
<title>22</title>
<ellipse fill="none" stroke="black" cx="1611" cy="-18" rx="27" ry="18"/>
<text text-anchor="middle" x="1611" y="-14.3" font-family="Times New Roman,serif" font-size="14.00">22</text>
</g>
<!-- B0&#45;&gt;22 -->
<g id="edge22" class="edge">
<title>B0&#45;&gt;22</title>
<path fill="none" stroke="black" d="M1055.07,-77.93C1060.13,-75.59 1065.65,-73.4 1071,-72 1288.24,-15.08 1357.76,-92.92 1575,-36 1577.17,-35.43 1579.37,-34.73 1581.56,-33.95"/>
<polygon fill="black" stroke="black" points="1583.03,-37.13 1590.93,-30.07 1580.36,-30.66 1583.03,-37.13"/>
</g>
<!-- 27 -->
<g id="node26" class="node">
<title>27</title>
<ellipse fill="none" stroke="black" cx="1683" cy="-18" rx="27" ry="18"/>
<text text-anchor="middle" x="1683" y="-14.3" font-family="Times New Roman,serif" font-size="14.00">27</text>
</g>
<!-- B0&#45;&gt;27 -->
<g id="edge24" class="edge">
<title>B0&#45;&gt;27</title>
<path fill="none" stroke="black" d="M1055.06,-77.9C1060.12,-75.55 1065.64,-73.38 1071,-72 1319.41,-8.09 1398.59,-99.91 1647,-36 1649.18,-35.44 1651.38,-34.75 1653.57,-33.97"/>
<polygon fill="black" stroke="black" points="1655.03,-37.15 1662.94,-30.1 1652.36,-30.68 1655.03,-37.15"/>
</g>
<!-- 24 -->
<g id="node27" class="node">
<title>24</title>
<ellipse fill="none" stroke="black" cx="1755" cy="-18" rx="27" ry="18"/>
<text text-anchor="middle" x="1755" y="-14.3" font-family="Times New Roman,serif" font-size="14.00">24</text>
</g>
<!-- B0&#45;&gt;24 -->
<g id="edge25" class="edge">
<title>B0&#45;&gt;24</title>
<path fill="none" stroke="black" d="M1055.05,-77.87C1060.11,-75.53 1065.64,-73.36 1071,-72 1350.6,-1.1 1439.4,-106.9 1719,-36 1721.18,-35.45 1723.38,-34.76 1725.57,-33.99"/>
<polygon fill="black" stroke="black" points="1727.03,-37.17 1734.95,-30.13 1724.37,-30.7 1727.03,-37.17"/>
</g>
<!-- 25 -->
<g id="node28" class="node">
<title>25</title>
<ellipse fill="none" stroke="black" cx="1827" cy="-18" rx="27" ry="18"/>
<text text-anchor="middle" x="1827" y="-14.3" font-family="Times New Roman,serif" font-size="14.00">25</text>
</g>
<!-- B0&#45;&gt;25 -->
<g id="edge27" class="edge">
<title>B0&#45;&gt;25</title>
<path fill="none" stroke="black" d="M1055.05,-77.85C1060.11,-75.51 1065.64,-73.34 1071,-72 1381.79,5.89 1480.21,-113.89 1791,-36 1793.18,-35.45 1795.38,-34.77 1797.58,-34"/>
<polygon fill="black" stroke="black" points="1799.03,-37.18 1806.95,-30.15 1796.37,-30.71 1799.03,-37.18"/>
</g>
<!-- 26 -->
<g id="node29" class="node">
<title>26</title>
<ellipse fill="none" stroke="black" cx="1899" cy="-18" rx="27" ry="18"/>
<text text-anchor="middle" x="1899" y="-14.3" font-family="Times New Roman,serif" font-size="14.00">26</text>
</g>
<!-- B0&#45;&gt;26 -->
<g id="edge26" class="edge">
<title>B0&#45;&gt;26</title>
<path fill="none" stroke="black" d="M1055.04,-77.83C1060.11,-75.49 1065.63,-73.33 1071,-72 1412.99,12.89 1521.01,-120.89 1863,-36 1865.18,-35.46 1867.39,-34.78 1869.58,-34.01"/>
<polygon fill="black" stroke="black" points="1871.03,-37.2 1878.96,-30.17 1868.38,-30.72 1871.03,-37.2"/>
</g>
<!-- 28 -->
<g id="node30" class="node">
<title>28</title>
<ellipse fill="none" stroke="black" cx="1971" cy="-18" rx="27" ry="18"/>
<text text-anchor="middle" x="1971" y="-14.3" font-family="Times New Roman,serif" font-size="14.00">28</text>
</g>
<!-- B0&#45;&gt;28 -->
<g id="edge28" class="edge">
<title>B0&#45;&gt;28</title>
<path fill="none" stroke="black" d="M1055.04,-77.82C1060.1,-75.48 1065.63,-73.32 1071,-72 1444.19,19.88 1561.81,-127.88 1935,-36 1937.18,-35.46 1939.39,-34.79 1941.58,-34.02"/>
<polygon fill="black" stroke="black" points="1943.03,-37.21 1950.96,-30.18 1940.38,-30.73 1943.03,-37.21"/>
</g>
<!-- 29 -->
<g id="node31" class="node">
<title>29</title>
<ellipse fill="none" stroke="black" cx="2043" cy="-18" rx="27" ry="18"/>
<text text-anchor="middle" x="2043" y="-14.3" font-family="Times New Roman,serif" font-size="14.00">29</text>
</g>
<!-- B0&#45;&gt;29 -->
<g id="edge29" class="edge">
<title>B0&#45;&gt;29</title>
<path fill="none" stroke="black" d="M1055.03,-77.81C1060.1,-75.47 1065.63,-73.31 1071,-72 1475.39,26.88 1602.61,-134.88 2007,-36 2009.18,-35.47 2011.39,-34.79 2013.58,-34.03"/>
<polygon fill="black" stroke="black" points="2015.03,-37.22 2022.97,-30.19 2012.38,-30.74 2015.03,-37.22"/>
</g>
<!-- 15 -->
<g id="node17" class="node">
<title>15</title>
<ellipse fill="none" stroke="black" cx="1107" cy="-90" rx="27" ry="18"/>
<text text-anchor="middle" x="1107" y="-86.3" font-family="Times New Roman,serif" font-size="14.00">15</text>
</g>
</g>
</svg>
